<?xml version="1.0" encoding="UTF-8"?>
<svg xmlns="http://www.w3.org/2000/svg" width="760" height="540" viewBox="0 0 760 540">
<rect width="760" height="540" fill="#ffffff"/>
<text x="46" y="34" font-size="22" font-family="sans-serif" font-weight="bold" fill="#222">Пресет "recommended" (60 x 30 см, сетка 8, шум 3.0%)) - ошибка локализации (auto), 60 x 30 см</text>
<rect x="46.00" y="388.25" width="84.30" height="42.55" fill="#4CFF33" stroke="#ddd" stroke-width="1"/>
<rect x="129.50" y="388.25" width="84.30" height="42.55" fill="#2EFF37" stroke="#ddd" stroke-width="1"/>
<rect x="213.00" y="388.25" width="84.30" height="42.55" fill="#e8e8e8" stroke="#aaa" stroke-width="1"/>
<rect x="296.50" y="388.25" width="84.30" height="42.55" fill="#e8e8e8" stroke="#aaa" stroke-width="1"/>
<rect x="380.00" y="388.25" width="84.30" height="42.55" fill="#FFE81B" stroke="#ddd" stroke-width="1"/>
<rect x="463.50" y="388.25" width="84.30" height="42.55" fill="#FFA513" stroke="#ddd" stroke-width="1"/>
<rect x="547.00" y="388.25" width="84.30" height="42.55" fill="#FF4909" stroke="#ddd" stroke-width="1"/>
<rect x="630.50" y="388.25" width="84.30" height="42.55" fill="#e8e8e8" stroke="#aaa" stroke-width="1"/>
<rect x="46.00" y="346.50" width="84.30" height="42.55" fill="#16FF39" stroke="#ddd" stroke-width="1"/>
<rect x="129.50" y="346.50" width="84.30" height="42.55" fill="#23FF38" stroke="#ddd" stroke-width="1"/>
<rect x="213.00" y="346.50" width="84.30" height="42.55" fill="#67FF30" stroke="#ddd" stroke-width="1"/>
<rect x="296.50" y="346.50" width="84.30" height="42.55" fill="#e8e8e8" stroke="#aaa" stroke-width="1"/>
<rect x="380.00" y="346.50" width="84.30" height="42.55" fill="#FFF01C" stroke="#ddd" stroke-width="1"/>
<rect x="463.50" y="346.50" width="84.30" height="42.55" fill="#FFA013" stroke="#ddd" stroke-width="1"/>
<rect x="547.00" y="346.50" width="84.30" height="42.55" fill="#FF4F09" stroke="#ddd" stroke-width="1"/>
<rect x="630.50" y="346.50" width="84.30" height="42.55" fill="#FF0701" stroke="#ddd" stroke-width="1"/>
<rect x="46.00" y="304.75" width="84.30" height="42.55" fill="#2DFF37" stroke="#ddd" stroke-width="1"/>
<rect x="129.50" y="304.75" width="84.30" height="42.55" fill="#25FF38" stroke="#ddd" stroke-width="1"/>
<rect x="213.00" y="304.75" width="84.30" height="42.55" fill="#7BFF2E" stroke="#ddd" stroke-width="1"/>
<rect x="296.50" y="304.75" width="84.30" height="42.55" fill="#FF8910" stroke="#ddd" stroke-width="1"/>
<rect x="380.00" y="304.75" width="84.30" height="42.55" fill="#FFF21C" stroke="#ddd" stroke-width="1"/>
<rect x="463.50" y="304.75" width="84.30" height="42.55" fill="#FF9912" stroke="#ddd" stroke-width="1"/>
<rect x="547.00" y="304.75" width="84.30" height="42.55" fill="#FF680C" stroke="#ddd" stroke-width="1"/>
<rect x="630.50" y="304.75" width="84.30" height="42.55" fill="#FF1D03" stroke="#ddd" stroke-width="1"/>
<rect x="46.00" y="263.00" width="84.30" height="42.55" fill="#3EFF35" stroke="#ddd" stroke-width="1"/>
<rect x="129.50" y="263.00" width="84.30" height="42.55" fill="#e8e8e8" stroke="#aaa" stroke-width="1"/>
<rect x="213.00" y="263.00" width="84.30" height="42.55" fill="#e8e8e8" stroke="#aaa" stroke-width="1"/>
<rect x="296.50" y="263.00" width="84.30" height="42.55" fill="#e8e8e8" stroke="#aaa" stroke-width="1"/>
<rect x="380.00" y="263.00" width="84.30" height="42.55" fill="#FFDF1A" stroke="#ddd" stroke-width="1"/>
<rect x="463.50" y="263.00" width="84.30" height="42.55" fill="#FF830F" stroke="#ddd" stroke-width="1"/>
<rect x="547.00" y="263.00" width="84.30" height="42.55" fill="#FF7B0E" stroke="#ddd" stroke-width="1"/>
<rect x="630.50" y="263.00" width="84.30" height="42.55" fill="#FF3606" stroke="#ddd" stroke-width="1"/>
<rect x="46.00" y="221.25" width="84.30" height="42.55" fill="#23FF38" stroke="#ddd" stroke-width="1"/>
<rect x="129.50" y="221.25" width="84.30" height="42.55" fill="#8EFF2B" stroke="#ddd" stroke-width="1"/>
<rect x="213.00" y="221.25" width="84.30" height="42.55" fill="#FF6B0D" stroke="#ddd" stroke-width="1"/>
<rect x="296.50" y="221.25" width="84.30" height="42.55" fill="#e8e8e8" stroke="#aaa" stroke-width="1"/>
<rect x="380.00" y="221.25" width="84.30" height="42.55" fill="#e8e8e8" stroke="#aaa" stroke-width="1"/>
<rect x="463.50" y="221.25" width="84.30" height="42.55" fill="#e8e8e8" stroke="#aaa" stroke-width="1"/>
<rect x="547.00" y="221.25" width="84.30" height="42.55" fill="#FF8A10" stroke="#ddd" stroke-width="1"/>
<rect x="630.50" y="221.25" width="84.30" height="42.55" fill="#FF3907" stroke="#ddd" stroke-width="1"/>
<rect x="46.00" y="179.50" width="84.30" height="42.55" fill="#94FF2B" stroke="#ddd" stroke-width="1"/>
<rect x="129.50" y="179.50" width="84.30" height="42.55" fill="#A6FF29" stroke="#ddd" stroke-width="1"/>
<rect x="213.00" y="179.50" width="84.30" height="42.55" fill="#FF670C" stroke="#ddd" stroke-width="1"/>
<rect x="296.50" y="179.50" width="84.30" height="42.55" fill="#e8e8e8" stroke="#aaa" stroke-width="1"/>
<rect x="380.00" y="179.50" width="84.30" height="42.55" fill="#e8e8e8" stroke="#aaa" stroke-width="1"/>
<rect x="463.50" y="179.50" width="84.30" height="42.55" fill="#e8e8e8" stroke="#aaa" stroke-width="1"/>
<rect x="547.00" y="179.50" width="84.30" height="42.55" fill="#59FF31" stroke="#ddd" stroke-width="1"/>
<rect x="630.50" y="179.50" width="84.30" height="42.55" fill="#FF4D09" stroke="#ddd" stroke-width="1"/>
<rect x="46.00" y="137.75" width="84.30" height="42.55" fill="#BCFF26" stroke="#ddd" stroke-width="1"/>
<rect x="129.50" y="137.75" width="84.30" height="42.55" fill="#FF1402" stroke="#ddd" stroke-width="1"/>
<rect x="213.00" y="137.75" width="84.30" height="42.55" fill="#FF5E0B" stroke="#ddd" stroke-width="1"/>
<rect x="296.50" y="137.75" width="84.30" height="42.55" fill="#FFB515" stroke="#ddd" stroke-width="1"/>
<rect x="380.00" y="137.75" width="84.30" height="42.55" fill="#D5FF23" stroke="#ddd" stroke-width="1"/>
<rect x="463.50" y="137.75" width="84.30" height="42.55" fill="#e8e8e8" stroke="#aaa" stroke-width="1"/>
<rect x="547.00" y="137.75" width="84.30" height="42.55" fill="#44FF34" stroke="#ddd" stroke-width="1"/>
<rect x="630.50" y="137.75" width="84.30" height="42.55" fill="#FF5109" stroke="#ddd" stroke-width="1"/>
<rect x="46.00" y="96.00" width="84.30" height="42.55" fill="#F5FF1F" stroke="#ddd" stroke-width="1"/>
<rect x="129.50" y="96.00" width="84.30" height="42.55" fill="#FF0000" stroke="#ddd" stroke-width="1"/>
<rect x="213.00" y="96.00" width="84.30" height="42.55" fill="#FF5009" stroke="#ddd" stroke-width="1"/>
<rect x="296.50" y="96.00" width="84.30" height="42.55" fill="#e8e8e8" stroke="#aaa" stroke-width="1"/>
<rect x="380.00" y="96.00" width="84.30" height="42.55" fill="#e8e8e8" stroke="#aaa" stroke-width="1"/>
<rect x="463.50" y="96.00" width="84.30" height="42.55" fill="#e8e8e8" stroke="#aaa" stroke-width="1"/>
<rect x="547.00" y="96.00" width="84.30" height="42.55" fill="#D8FF23" stroke="#ddd" stroke-width="1"/>
<rect x="630.50" y="96.00" width="84.30" height="42.55" fill="#FF520A" stroke="#ddd" stroke-width="1"/>
<line x1="112.80" y1="363.20" x2="112.80" y2="229.60" stroke="#999999" stroke-width="4"/>
<circle cx="112.80" cy="363.20" r="7" fill="#999999" stroke="#000" stroke-width="1.5"/>
<circle cx="112.80" cy="229.60" r="7" fill="#999999" stroke="#000" stroke-width="1.5"/>
<text x="106.80" y="286.40" font-size="14" font-family="sans-serif" fill="#000">П1</text>
<line x1="647.20" y1="279.70" x2="647.20" y2="146.10" stroke="#999999" stroke-width="4"/>
<circle cx="647.20" cy="279.70" r="7" fill="#999999" stroke="#000" stroke-width="1.5"/>
<circle cx="647.20" cy="146.10" r="7" fill="#999999" stroke="#000" stroke-width="1.5"/>
<text x="641.20" y="202.90" font-size="14" font-family="sans-serif" fill="#000">П2</text>
<line x1="146.20" y1="379.90" x2="480.20" y2="413.30" stroke="#999999" stroke-width="4"/>
<circle cx="146.20" cy="379.90" r="7" fill="#999999" stroke="#000" stroke-width="1.5"/>
<circle cx="480.20" cy="413.30" r="7" fill="#999999" stroke="#000" stroke-width="1.5"/>
<text x="307.20" y="386.60" font-size="14" font-family="sans-serif" fill="#000">П3</text>
<line x1="246.40" y1="146.10" x2="613.80" y2="112.70" stroke="#999999" stroke-width="4"/>
<circle cx="246.40" cy="146.10" r="7" fill="#999999" stroke="#000" stroke-width="1.5"/>
<circle cx="613.80" cy="112.70" r="7" fill="#999999" stroke="#000" stroke-width="1.5"/>
<text x="424.10" y="119.40" font-size="14" font-family="sans-serif" fill="#000">П4</text>
<rect x="46.00" y="500" width="16" height="16" fill="#E33E2E" stroke="#000" stroke-width="1"/>
<text x="68.00" y="513" font-size="14" font-family="sans-serif" fill="#000">Ch1</text>
<rect x="146.00" y="500" width="16" height="16" fill="#2E9E3B" stroke="#000" stroke-width="1"/>
<text x="168.00" y="513" font-size="14" font-family="sans-serif" fill="#000">Ch2</text>
<rect x="246.00" y="500" width="16" height="16" fill="#3373D6" stroke="#000" stroke-width="1"/>
<text x="268.00" y="513" font-size="14" font-family="sans-serif" fill="#000">Ch3</text>
<rect x="346.00" y="500" width="16" height="16" fill="#EF8D22" stroke="#000" stroke-width="1"/>
<text x="368.00" y="513" font-size="14" font-family="sans-serif" fill="#000">Ch4</text>
<text x="46" y="530" font-size="14" font-family="sans-serif" fill="#666">максимальная ошибка на шкале: 45.03 см. Цвет ячейки = средняя ошибка локализации (зелёный - хорошо, красный - плохо); серая = подбор не сошёлся.</text>
</svg>
